<svg width="40.000000" height="40.000000" viewBox="0 0 40 40" fill="none" xmlns="http://www.w3.org/2000/svg" xmlns:xlink="http://www.w3.org/1999/xlink">
	<desc>
			Created with Pixso.
	</desc>
	<defs>
		<clipPath id="clip24_185">
			<rect id="access_time" width="40.000000" height="40.000000" fill="white" fill-opacity="0"/>
		</clipPath>
	</defs>
	<rect id="access_time" width="40.000000" height="40.000000" fill="#FFFFFF" fill-opacity="0"/>
	<g clip-path="url(#clip24_185)">
		<path id="矢量 3" d="M19.98 3.33C10.78 3.33 3.33 10.8 3.33 20C3.33 29.2 10.78 36.66 19.98 36.66C29.2 36.66 36.66 29.2 36.66 20C36.66 10.8 29.2 3.33 19.98 3.33ZM20 33.33C12.63 33.33 6.66 27.36 6.66 20C6.66 12.63 12.63 6.66 20 6.66C27.36 6.66 33.33 12.63 33.33 20C33.33 27.36 27.36 33.33 20 33.33Z" fill="#444444" fill-opacity="1.000000" fill-rule="evenodd"/>
		<path id="矢量 4" d="M20.83 11.66L18.33 11.66L18.33 21.66L27.08 26.91L28.33 24.86L20.83 20.41L20.83 11.66Z" fill="#444444" fill-opacity="1.000000" fill-rule="evenodd"/>
	</g>
</svg>
