<svg width="40.000000" height="40.000000" viewBox="0 0 40 40" fill="none" xmlns="http://www.w3.org/2000/svg" xmlns:xlink="http://www.w3.org/1999/xlink">
	<desc>
			Created with Pixso.
	</desc>
	<defs>
		<clipPath id="clip24_190">
			<rect id="contacts-book-2-line" width="40.000000" height="40.000000" fill="white" fill-opacity="0"/>
		</clipPath>
	</defs>
	<rect id="contacts-book-2-line" width="40.000000" height="40.000000" fill="#FFFFFF" fill-opacity="0"/>
	<g clip-path="url(#clip24_190)">
		<path id="矢量 13" d="M33.33 36.66L10 36.66C8.67 36.66 7.4 36.13 6.46 35.2C5.52 34.26 5 32.99 5 31.66L5 8.33C5 7 5.52 5.73 6.46 4.79C7.4 3.86 8.67 3.33 10 3.33L33.33 3.33C33.77 3.33 34.19 3.5 34.51 3.82C34.82 4.13 35 4.55 35 5L35 35C35 35.44 34.82 35.86 34.51 36.17C34.19 36.49 33.77 36.66 33.33 36.66ZM31.66 33.33L31.66 30L10 30C9.55 30 9.13 30.17 8.82 30.48C8.5 30.8 8.33 31.22 8.33 31.66C8.33 32.1 8.5 32.53 8.82 32.84C9.13 33.15 9.55 33.33 10 33.33L31.66 33.33ZM8.33 26.95C8.85 26.76 9.41 26.66 10 26.66L31.66 26.66L31.66 6.66L10 6.66C9.55 6.66 9.13 6.84 8.82 7.15C8.5 7.46 8.33 7.89 8.33 8.33L8.33 26.95ZM20 16.66C19.11 16.66 18.26 16.31 17.64 15.69C17.01 15.06 16.66 14.21 16.66 13.33C16.66 12.44 17.01 11.6 17.64 10.97C18.26 10.35 19.11 10 20 10C20.88 10 21.73 10.35 22.35 10.97C22.98 11.6 23.33 12.44 23.33 13.33C23.33 14.21 22.98 15.06 22.35 15.69C21.73 16.31 20.88 16.66 20 16.66ZM15 23.33C15 22 15.52 20.73 16.46 19.79C17.4 18.86 18.67 18.33 20 18.33C21.32 18.33 22.59 18.86 23.53 19.79C24.47 20.73 25 22 25 23.33L15 23.33Z" fill="#444444" fill-opacity="1.000000" fill-rule="evenodd"/>
	</g>
</svg>
