<svg width="40.000000" height="40.000000" viewBox="0 0 40 40" fill="none" xmlns="http://www.w3.org/2000/svg" xmlns:xlink="http://www.w3.org/1999/xlink">
	<desc>
			Created with Pixso.
	</desc>
	<defs/>
	<rect id="Feather Icon / eye" width="40.000000" height="40.000000" fill="#FFFFFF" fill-opacity="0"/>
	<path id="Mask" d="M39.8748 19.3334C39.5407 18.6666 32.5261 5 20 5C7.47388 5 0.45929 18.6666 0.125244 19.3334C-0.041748 19.8334 -0.041748 20.3334 0.125244 20.8334C0.45929 21.3334 7.47388 35 20 35C32.5261 35 39.5407 21.3334 39.8748 20.6666C40.0417 20.3334 40.0417 19.6666 39.8748 19.3334ZM3.46558 20C5.13574 22.6667 10.9813 31.6667 20 31.6667C29.0188 31.6667 34.8643 22.6667 36.5345 20C34.8643 17.3334 29.0188 8.33337 20 8.33337C10.9813 8.33337 4.96869 17.3334 3.46558 20ZM20 13.3334C16.3257 13.3334 13.3194 16.3334 13.3194 20C13.3194 23.6667 16.3257 26.6667 20 26.6667C23.6743 26.6667 26.6805 23.6667 26.6805 20C26.6805 16.3334 23.6743 13.3334 20 13.3334ZM16.6597 20C16.6597 21.8333 18.1628 23.3333 20 23.3333C21.8372 23.3333 23.3403 21.8333 23.3403 20C23.3403 18.1666 21.8372 16.6666 20 16.6666C18.1628 16.6666 16.6597 18.1666 16.6597 20Z" clip-rule="evenodd" fill="#666666" fill-opacity="1.000000" fill-rule="evenodd"/>
	<mask id="mask24_214" mask-type="alpha" maskUnits="userSpaceOnUse" x="0.000000" y="5.000000" width="40.000000" height="30.000000">
		<path id="Mask" d="M39.8748 19.3334C39.5407 18.6666 32.5261 5 20 5C7.47388 5 0.45929 18.6666 0.125244 19.3334C-0.041748 19.8334 -0.041748 20.3334 0.125244 20.8334C0.45929 21.3334 7.47388 35 20 35C32.5261 35 39.5407 21.3334 39.8748 20.6666C40.0417 20.3334 40.0417 19.6666 39.8748 19.3334ZM3.46558 20C5.13574 22.6667 10.9813 31.6667 20 31.6667C29.0188 31.6667 34.8643 22.6667 36.5345 20C34.8643 17.3334 29.0188 8.33337 20 8.33337C10.9813 8.33337 4.96869 17.3334 3.46558 20ZM20 13.3334C16.3257 13.3334 13.3194 16.3334 13.3194 20C13.3194 23.6667 16.3257 26.6667 20 26.6667C23.6743 26.6667 26.6805 23.6667 26.6805 20C26.6805 16.3334 23.6743 13.3334 20 13.3334ZM16.6597 20C16.6597 21.8333 18.1628 23.3333 20 23.3333C21.8372 23.3333 23.3403 21.8333 23.3403 20C23.3403 18.1666 21.8372 16.6666 20 16.6666C18.1628 16.6666 16.6597 18.1666 16.6597 20Z" clip-rule="evenodd" fill="#282828" fill-opacity="1.000000" fill-rule="evenodd"/>
	</mask>
	<g mask="url(#mask24_214)">
		<rect id="Icon 🎨" width="40.000000" height="40.000000" fill="#FFFFFF" fill-opacity="0"/>
		<path id="Shape" d="M0 0L40 0L40 40L0 40L0 0Z" fill="#666666" fill-opacity="1.000000" fill-rule="evenodd"/>
	</g>
</svg>
