<svg width="24.998932" height="35.833374" viewBox="0 0 24.9989 35.8334" fill="none" xmlns="http://www.w3.org/2000/svg" xmlns:xlink="http://www.w3.org/1999/xlink">
	<desc>
			Created with Pixso.
	</desc>
	<defs/>
	<path id="矢量 11" d="M12.49 35.83C15.81 35.83 18.99 34.51 21.33 32.17C23.68 29.82 24.99 26.64 24.99 23.33C24.99 21.89 24.61 20.5 24.16 19.21C21.38 21.96 19.27 23.33 17.83 23.33C24.49 11.66 20.83 6.66 10.83 0C11.66 8.33 6.17 12.12 3.93 14.22C2.11 15.94 0.84 18.16 0.29 20.61C-0.25 23.05 -0.05 25.61 0.87 27.93C1.8 30.26 3.4 32.26 5.47 33.67C7.54 35.08 9.99 35.83 12.49 35.83L12.49 35.83ZM13.68 6.22C19.08 10.8 19.11 14.37 14.93 21.68C13.66 23.9 15.27 26.66 17.83 26.66C18.97 26.66 20.13 26.33 21.36 25.67C21 27.04 20.32 28.31 19.38 29.38C18.45 30.44 17.27 31.28 15.96 31.81C14.65 32.35 13.23 32.57 11.81 32.47C10.4 32.36 9.03 31.93 7.81 31.2C6.59 30.47 5.55 29.47 4.79 28.28C4.02 27.09 3.54 25.73 3.39 24.32C3.23 22.91 3.41 21.48 3.9 20.15C4.39 18.82 5.18 17.62 6.21 16.65C6.42 16.45 7.49 15.51 7.54 15.47C8.24 14.83 8.82 14.27 9.4 13.66C11.45 11.46 12.92 9.02 13.68 6.22L13.68 6.22Z" fill="#444444" fill-opacity="1.000000" fill-rule="evenodd"/>
</svg>
