<svg width="40.000000" height="40.000000" viewBox="0 0 40 40" fill="none" xmlns="http://www.w3.org/2000/svg" xmlns:xlink="http://www.w3.org/1999/xlink">
	<desc>
			Created with Pixso.
	</desc>
	<defs>
		<clipPath id="clip24_188">
			<rect id="heart-line" width="40.000000" height="40.000000" fill="white" fill-opacity="0"/>
		</clipPath>
	</defs>
	<rect id="heart-line" width="40.000000" height="40.000000" fill="#FFFFFF" fill-opacity="0"/>
	<g clip-path="url(#clip24_188)">
		<path id="矢量 17" d="M20 7.54C23.91 4.03 29.96 4.15 33.73 7.92C37.5 11.7 37.63 17.72 34.13 21.65L19.99 35.8L5.86 21.65C2.36 17.72 2.49 11.69 6.26 7.92C10.03 4.15 16.07 4.02 20 7.54L20 7.54ZM31.37 10.28C28.87 7.77 24.84 7.67 22.22 10.02L20 12.02L17.77 10.02C15.15 7.67 11.12 7.77 8.62 10.28C6.13 12.77 6.01 16.74 8.3 19.37L20 31.09L31.7 19.37C33.99 16.74 33.86 12.77 31.37 10.28L31.37 10.28Z" fill="#444444" fill-opacity="1.000000" fill-rule="evenodd"/>
	</g>
</svg>
