<svg width="40.000000" height="40.000000" viewBox="0 0 40 40" fill="none" xmlns="http://www.w3.org/2000/svg" xmlns:xlink="http://www.w3.org/1999/xlink">
	<desc>
			Created with Pixso.
	</desc>
	<defs>
		<clipPath id="clip24_194">
			<rect id="home-line" width="40.000000" height="40.000000" fill="white" fill-opacity="0"/>
		</clipPath>
	</defs>
	<rect id="home-line" width="40.000000" height="40.000000" fill="#FFFFFF" fill-opacity="0"/>
	<g clip-path="url(#clip24_194)">
		<path id="矢量 32" d="M35 33.33C35 33.77 34.82 34.19 34.51 34.51C34.19 34.82 33.77 35 33.33 35L6.66 35C6.22 35 5.8 34.82 5.48 34.51C5.17 34.19 5 33.77 5 33.33L5 15.81C4.99 15.56 5.05 15.31 5.16 15.08C5.28 14.85 5.44 14.65 5.64 14.5L18.97 4.13C19.26 3.9 19.62 3.77 20 3.77C20.37 3.77 20.73 3.9 21.02 4.13L34.35 14.5C34.55 14.65 34.71 14.85 34.83 15.08C34.94 15.31 35 15.56 35 15.81L35 33.33L35 33.33ZM31.66 31.66L31.66 16.63L20 7.55L8.33 16.63L8.33 31.66L31.66 31.66Z" fill="#444444" fill-opacity="1.000000" fill-rule="evenodd"/>
	</g>
</svg>
