<svg width="40.000000" height="40.000000" viewBox="0 0 40 40" fill="none" xmlns="http://www.w3.org/2000/svg" xmlns:xlink="http://www.w3.org/1999/xlink">
	<desc>
			Created with Pixso.
	</desc>
	<defs>
		<clipPath id="clip24_204">
			<rect id="message-2-line" width="40.000000" height="40.000000" fill="white" fill-opacity="0"/>
		</clipPath>
	</defs>
	<rect id="message-2-line" width="40.000000" height="40.000000" fill="#FFFFFF" fill-opacity="0"/>
	<g clip-path="url(#clip24_204)">
		<path id="矢量 44" d="M10.75 31.66L3.33 37.5L3.33 6.66C3.33 6.22 3.5 5.8 3.82 5.48C4.13 5.17 4.55 5 5 5L35 5C35.44 5 35.86 5.17 36.17 5.48C36.49 5.8 36.66 6.22 36.66 6.66L36.66 30C36.66 30.44 36.49 30.86 36.17 31.17C35.86 31.49 35.44 31.66 35 31.66L10.75 31.66ZM9.6 28.33L33.33 28.33L33.33 8.33L6.66 8.33L6.66 30.64L9.6 28.33ZM18.33 16.66L21.66 16.66L21.66 20L18.33 20L18.33 16.66ZM11.66 16.66L15 16.66L15 20L11.66 20L11.66 16.66ZM25 16.66L28.33 16.66L28.33 20L25 20L25 16.66Z" fill="#666666" fill-opacity="1.000000" fill-rule="evenodd"/>
	</g>
</svg>
