<svg width="40.000000" height="40.000000" viewBox="0 0 40 40" fill="none" xmlns="http://www.w3.org/2000/svg" xmlns:xlink="http://www.w3.org/1999/xlink">
	<desc>
			Created with Pixso.
	</desc>
	<defs/>
	<path id="矢量 4" d="M31.8 20.31L30.28 18.79L9.08 40L0 40L0 30.91L24.22 6.68L36.34 18.79C36.74 19.2 36.96 19.74 36.96 20.31C36.96 20.88 36.74 21.42 36.34 21.82L21.2 36.96L18.17 33.94L31.8 20.31L31.8 20.31ZM27.25 15.77L24.22 12.74L4.28 32.68L4.28 35.71L7.31 35.71L27.25 15.77L27.25 15.77ZM33.31 0.62L39.37 6.68C39.77 7.08 40 7.62 40 8.19C40 8.76 39.77 9.31 39.37 9.71L36.34 12.74L27.25 3.65L30.28 0.62C30.68 0.22 31.23 0 31.8 0C32.36 0 32.91 0.22 33.31 0.62L33.31 0.62Z" fill="#444444" fill-opacity="1.000000" fill-rule="evenodd"/>
</svg>
