<svg width="24.000000" height="24.000000" viewBox="0 0 24 24" fill="none" xmlns="http://www.w3.org/2000/svg" xmlns:xlink="http://www.w3.org/1999/xlink">
	<desc>
			Created with Pixso.
	</desc>
	<defs/>
	<rect width="24.000000" height="24.000000" fill="#FFFFFF" fill-opacity="0"/>
	<path d="M7 7C7 4.20001 9.19995 2 12 2C14.8 2 17 4.20001 17 7C17 9.79999 14.8 12 12 12C9.19995 12 7 9.79999 7 7ZM12 10C10.3 10 9 8.70001 9 7C9 5.29999 10.3 4 12 4C13.7 4 15 5.29999 15 7C15 8.70001 13.7 10 12 10ZM21 21L21 19C21 16.2 18.8 14 16 14L8 14C5.19995 14 3 16.2 3 19L3 21C3 21.6 3.3999 22 4 22C4.6001 22 5 21.6 5 21L5 19C5 17.3 6.30005 16 8 16L16 16C17.7 16 19 17.3 19 19L19 21C19 21.6 19.3999 22 20 22C20.6001 22 21 21.6 21 21Z" clip-rule="evenodd" fill="#212529" fill-opacity="1.000000" fill-rule="evenodd"/>
	<mask id="mask16_299" mask-type="alpha" maskUnits="userSpaceOnUse" x="3.000000" y="2.000000" width="18.000000" height="20.000000">
		<path d="M7 7C7 4.20001 9.19995 2 12 2C14.8 2 17 4.20001 17 7C17 9.79999 14.8 12 12 12C9.19995 12 7 9.79999 7 7ZM12 10C10.3 10 9 8.70001 9 7C9 5.29999 10.3 4 12 4C13.7 4 15 5.29999 15 7C15 8.70001 13.7 10 12 10ZM21 21L21 19C21 16.2 18.8 14 16 14L8 14C5.19995 14 3 16.2 3 19L3 21C3 21.6 3.3999 22 4 22C4.6001 22 5 21.6 5 21L5 19C5 17.3 6.30005 16 8 16L16 16C17.7 16 19 17.3 19 19L19 21C19 21.6 19.3999 22 20 22C20.6001 22 21 21.6 21 21Z" clip-rule="evenodd" fill="#666666" fill-opacity="1.000000" fill-rule="evenodd"/>
	</mask>
	<g mask="url(#mask16_299)">
		<rect width="24.000000" height="24.000000" fill="#FFFFFF" fill-opacity="0"/>
		<path d="M0 0L24 0L24 24L0 24L0 0Z" fill="#666666" fill-opacity="1.000000" fill-rule="evenodd"/>
	</g>
</svg>
