<svg width="40.000000" height="40.000000" viewBox="0 0 40 40" fill="none" xmlns="http://www.w3.org/2000/svg" xmlns:xlink="http://www.w3.org/1999/xlink">
	<desc>
			Created with Pixso.
	</desc>
	<defs>
		<clipPath id="clip24_199">
			<rect id="question-answer-line" width="40.000000" height="40.000000" fill="white" fill-opacity="0"/>
		</clipPath>
	</defs>
	<rect id="question-answer-line" width="40.000000" height="40.000000" fill="#FFFFFF" fill-opacity="0"/>
	<g clip-path="url(#clip24_199)">
		<path id="矢量 50" d="M9.09 25L1.66 30.83L1.66 5C1.66 4.55 1.84 4.13 2.15 3.82C2.46 3.5 2.89 3.33 3.33 3.33L28.33 3.33C28.77 3.33 29.19 3.5 29.51 3.82C29.82 4.13 30 4.55 30 5L30 25L9.09 25ZM7.93 21.66L26.66 21.66L26.66 6.66L5 6.66L5 23.97L7.93 21.66ZM13.33 28.33L30.39 28.33L33.33 30.64L33.33 13.33L35 13.33C35.44 13.33 35.86 13.5 36.17 13.82C36.49 14.13 36.66 14.55 36.66 15L36.66 37.5L29.24 31.66L15 31.66C14.55 31.66 14.13 31.49 13.82 31.17C13.5 30.86 13.33 30.44 13.33 30L13.33 28.33Z" fill="#444444" fill-opacity="1.000000" fill-rule="evenodd"/>
	</g>
</svg>
