<svg width="40.000000" height="40.000000" viewBox="0 0 40 40" fill="none" xmlns="http://www.w3.org/2000/svg" xmlns:xlink="http://www.w3.org/1999/xlink">
	<desc>
			Created with Pixso.
	</desc>
	<defs>
		<clipPath id="clip24_206">
			<rect id="reply-line" width="40.000000" height="40.000000" transform="matrix(-1 0 0 1 40 0)" fill="white" fill-opacity="0"/>
		</clipPath>
	</defs>
	<rect id="reply-line" width="40.000000" height="40.000000" transform="matrix(-1 0 0 1 40 0)" fill="#FFFFFF" fill-opacity="0"/>
	<g clip-path="url(#clip24_206)">
		<path id="矢量 141" d="M21.66 33.33L38.33 20L21.66 6.66L21.66 15C12.46 15 5 22.46 5 31.66C5 32.12 5.01 32.57 5.05 33.01C7.49 28.39 12.27 25.19 17.81 25L18.33 25L21.66 25L21.66 33.33ZM25 21.66L18.27 21.66L17.69 21.67C15.55 21.75 13.49 22.19 11.57 22.95C14.01 20.12 17.63 18.33 21.66 18.33L25 18.33L25 13.6L32.99 20L25 26.39L25 21.66Z" fill="#666666" fill-opacity="1.000000" fill-rule="evenodd"/>
	</g>
</svg>
