<svg width="40.000000" height="40.000000" viewBox="0 0 40 40" fill="none" xmlns="http://www.w3.org/2000/svg" xmlns:xlink="http://www.w3.org/1999/xlink">
	<desc>
			Created with Pixso.
	</desc>
	<defs>
		<clipPath id="clip24_192">
			<rect id="report" width="40.000000" height="40.000000" fill="white" fill-opacity="0"/>
		</clipPath>
	</defs>
	<rect id="report" width="40.000000" height="40.000000" fill="#FFFFFF" fill-opacity="0"/>
	<g clip-path="url(#clip24_192)">
		<path id="矢量 61" d="M26.21 5L13.78 5L5 13.78L5 26.21L13.78 35L26.21 35L35 26.21L35 13.78L26.21 5ZM20 28.83C18.79 28.83 17.83 27.86 17.83 26.66C17.83 25.46 18.79 24.5 20 24.5C21.2 24.5 22.16 25.46 22.16 26.66C22.16 27.86 21.2 28.83 20 28.83ZM21.66 21.66L18.33 21.66L18.33 11.66L21.66 11.66L21.66 21.66Z" fill="#444444" fill-opacity="1.000000" fill-rule="evenodd"/>
	</g>
</svg>
